<?xml version="1.0" encoding="utf-8"?>
<!-- Generator: Adobe Illustrator 26.0.1, SVG Export Plug-In . SVG Version: 6.00 Build 0)  -->
<svg version="1.1" id="bg-multi-number" xmlns="http://www.w3.org/2000/svg" xmlns:xlink="http://www.w3.org/1999/xlink" x="0px"
	 y="0px" viewBox="0 0 24 24" style="enable-background:new 0 0 24 24;" xml:space="preserve">
<style type="text/css">
	.st0{fill:#FFFFFF;}
	.st1{fill:#FF5533;}
</style>
<circle id="Oval" class="st0" cx="12" cy="12" r="12"/>
<path class="st1" d="M12,21.8c-5.4,0-9.8-4.4-9.8-9.8S6.6,2.2,12,2.2c2.6,0,5.1,1,6.9,2.9c1.8,1.8,2.9,4.3,2.9,6.9
	C21.8,17.4,17.4,21.8,12,21.8z M12,3.8c-4.5,0-8.2,3.7-8.2,8.2s3.7,8.2,8.2,8.2s8.2-3.7,8.2-8.2c0-2.2-0.9-4.3-2.4-5.8
	C16.3,4.6,14.2,3.8,12,3.8z"/>
</svg>
