<?xml version="1.0" encoding="utf-8"?>
<!-- Generator: Adobe Illustrator 26.0.1, SVG Export Plug-In . SVG Version: 6.00 Build 0)  -->
<svg version="1.1" id="ic_piv" xmlns="http://www.w3.org/2000/svg" xmlns:xlink="http://www.w3.org/1999/xlink" x="0px" y="0px"
	 viewBox="0 0 24 24" style="enable-background:new 0 0 24 24;" xml:space="preserve">
<style type="text/css">
	.st0{fill:#FF5533;}
</style>
<path class="st0" d="M20.4,14.8h-6.6c-0.1,0-0.1,0.1-0.1,0.1c0,0,0,0,0,0.1c1.1,1.7,3.1,2.8,5.1,2.7h5c0.1,0,0.1,0,0.1-0.1l0,0v-2.7
	c0-0.1,0-0.1-0.1-0.1l0,0L20.4,14.8z M13.7,9c0,0.1,0,0.2,0,0.2c0,0,0,0,0.1,0h10c0.1,0,0.1-0.1,0.1-0.1V6.4c0-0.1-0.1-0.1-0.1-0.1
	h-5C16.8,6.3,14.9,7.3,13.7,9z M3.6,9.2h6.6c0.1,0,0.1-0.1,0.1-0.1c0,0,0,0,0-0.1C9.2,7.3,7.2,6.3,5.2,6.3h-5C0,6.3,0,6.3,0,6.4v2.7
	c0,0.1,0,0.1,0.1,0.1L3.6,9.2z M10.3,15c0-0.1,0-0.2,0-0.2c0,0-0.1,0-0.1,0h-10c-0.1,0-0.1,0.1-0.1,0.1l0,0v2.6
	c0,0.1,0.1,0.1,0.1,0.1h5C7.2,17.7,9.1,16.7,10.3,15z M7.4,10.6h9.4c0.8,0,1.4,0.6,1.4,1.4l0,0c0,0.8-0.6,1.4-1.4,1.4H7.4
	C6.7,13.4,6,12.8,6,12l0,0C6,11.2,6.7,10.6,7.4,10.6z"/>
</svg>
