<?xml version="1.0" encoding="utf-8"?>
<!-- Generator: Adobe Illustrator 26.0.1, SVG Export Plug-In . SVG Version: 6.00 Build 0)  -->
<svg version="1.1" id="Layer_1" xmlns="http://www.w3.org/2000/svg" xmlns:xlink="http://www.w3.org/1999/xlink" x="0px" y="0px"
	 viewBox="0 0 18 17" style="enable-background:new 0 0 18 17;" xml:space="preserve">
<style type="text/css">
	.st0{opacity:0.6955;fill-rule:evenodd;clip-rule:evenodd;fill:#FFFFFF;enable-background:new    ;}
</style>
<path id="Path_18563" class="st0" d="M16.8,15.3l-6.7-6.8l6.7-6.8l0.5-0.5l-0.5-0.5c-0.3-0.3-0.8-0.3-1.1,0L9,7.4L2.3,0.7
	C2,0.4,1.5,0.4,1.2,0.7L0.7,1.2l0.5,0.5l6.7,6.8l-6.7,6.8c-0.3,0.3-0.3,0.8,0,1.1l0.5,0.5l0.5-0.5l6.7-6.8l6.7,6.8l0.5,0.5l0.5-0.5
	C17.1,16,17.1,15.5,16.8,15.3z"/>
</svg>
