<?xml version="1.0" encoding="utf-8"?>
<!-- Generator: Adobe Illustrator 26.0.1, SVG Export Plug-In . SVG Version: 6.00 Build 0)  -->
<svg version="1.1" id="Layer_1" shape-rendering="crispEdges"
	 xmlns="http://www.w3.org/2000/svg" xmlns:xlink="http://www.w3.org/1999/xlink" x="0px" y="0px" viewBox="0 0 24 24"
	 style="enable-background:new 0 0 24 24;" xml:space="preserve">
<style type="text/css">
	.st0{fill-rule:evenodd;clip-rule:evenodd;fill:#FFFFFF;}
</style>
<path class="st0" d="M12,12c0-3.6,2.7-6.6,6.3-7l2.6-0.3c-0.6-0.6-1.3-1.1-2.1-1.5l-0.2-0.1c-0.3-0.2-0.7-0.3-1-0.5
	c-0.1,0-0.1,0-0.2-0.1c-0.3-0.1-0.6-0.2-0.9-0.3c-0.1,0-0.2-0.1-0.2-0.1c-0.3-0.1-0.6-0.1-0.9-0.2c-0.1,0-0.2,0-0.2,0
	c-3.8-0.5-7.6,1.3-9.6,4.6c-2,3.3-2,7.4,0,10.7c2.1,3.3,5.8,5,9.6,4.6c0.1,0,0.2,0,0.2,0c0.3,0,0.6-0.1,0.9-0.2c0.1,0,0.2,0,0.2-0.1
	c0.3-0.1,0.6-0.2,0.9-0.3c0.1,0,0.1,0,0.2-0.1c0.4-0.1,0.7-0.3,1-0.5l0.2-0.1c0.8-0.4,1.5-0.9,2.1-1.5L18.3,19
	C14.8,18.6,12,15.6,12,12z M14,20c-4.4,0-8-3.6-8-8s3.6-8,8-8c0.3,0,0.5,0,0.8,0C11.9,5.6,10,8.7,10,12c0,3.3,1.8,6.4,4.8,8
	C14.6,20,14.3,20,14,20z"/>
</svg>
