<?xml version="1.0" encoding="utf-8"?>
<!-- Generator: Adobe Illustrator 26.0.1, SVG Export Plug-In . SVG Version: 6.00 Build 0)  -->
<svg version="1.1" id="ic_light_theme" shape-rendering="geometricPrecision"
	 xmlns="http://www.w3.org/2000/svg" xmlns:xlink="http://www.w3.org/1999/xlink" x="0px" y="0px" viewBox="0 0 24 24"
	 style="enable-background:new 0 0 24 24;" xml:space="preserve">
<style type="text/css">
	.st0{fill:#FFFFFF;}
</style>
<path id="Group_8846" class="st0" d="M12,7c-2.8,0-5,2.2-5,5s2.2,5,5,5s5-2.2,5-5C17,9.2,14.8,7,12,7z M12,15c-1.7,0-3-1.3-3-3
	s1.3-3,3-3s3,1.3,3,3S13.7,15,12,15z M11,2h2v4h-2V2z M11,18h2v4h-2V18z M2,11h4v2H2V11z M18,11h4v2h-4V11z M4.2,5.6l1.4-1.4
	l2.8,2.8L7.1,8.5L4.2,5.6z M15.5,16.9l1.4-1.4l2.8,2.8l-1.4,1.4L15.5,16.9z M4.2,18.4l2.8-2.8l1.4,1.4l-2.8,2.8L4.2,18.4z M15.5,7
	l2.8-2.8l1.4,1.4L17,8.5L15.5,7z"/>
</svg>
