<?xml version="1.0" encoding="utf-8"?>
<!-- Generator: Adobe Illustrator 26.0.1, SVG Export Plug-In . SVG Version: 6.00 Build 0)  -->
<svg version="1.1" id="ic_error_sync" shape-rendering="geometricPrecision"
	 xmlns="http://www.w3.org/2000/svg" xmlns:xlink="http://www.w3.org/1999/xlink" x="0px" y="0px" viewBox="0 0 24 24"
	 style="enable-background:new 0 0 24 24;" xml:space="preserve">
<style type="text/css">
	.st0{fill:#FF5533;}
</style>
<path class="st0" d="M21,12c0,1.7-0.5,3.3-1.4,4.8l-1.5-1.5c0.6-1,0.8-2.2,0.8-3.3H21z M15.3,18.2c-3.1,1.7-7,0.8-9.1-2.2H9v-2H3v6
	h2v-2.4c2.8,3.6,7.9,4.4,11.8,2L15.3,18.2z M19,4v2.4c-2.8-3.6-7.9-4.4-11.8-2l1.5,1.5c3.1-1.7,7-0.8,9.1,2.2H15v2h6V4H19z M4.4,7.2
	C3.5,8.7,3,10.3,3,12h2c0-1.2,0.3-2.3,0.8-3.3L4.4,7.2z M4.7,3.3L3.3,4.7l16,16l1.4-1.4L4.7,3.3z"/>
</svg>
