<?xml version="1.0" encoding="utf-8"?>
<!-- Generator: Adobe Illustrator 26.0.1, SVG Export Plug-In . SVG Version: 6.00 Build 0)  -->
<svg version="1.1" id="ic_connect" shape-rendering="geometricPrecision"
	 xmlns="http://www.w3.org/2000/svg" xmlns:xlink="http://www.w3.org/1999/xlink" x="0px" y="0px" viewBox="0 0 24 24"
	 style="enable-background:new 0 0 24 24;" xml:space="preserve">
<style type="text/css">
	.st0{fill:none;}
</style>
<path id="Group_8843" class="st0" d="M12,16c1.1,0,2,0.9,2,2c0,1.1-0.9,2-2,2s-2-0.9-2-2C10,16.9,10.9,16,12,16z M20.7,9.4
	c-4.9-4.5-12.5-4.5-17.5,0L1.9,7.9c5.7-5.2,14.5-5.2,20.2,0L20.7,9.4z M18,12.3c-3.4-3.1-8.7-3.1-12.1,0l-1.3-1.5
	C8.8,7,15.2,7,19.4,10.9L18,12.3z M8.6,15.3l-1.3-1.5c2.7-2.4,6.7-2.4,9.4,0l-1.3,1.5C13.4,13.6,10.6,13.6,8.6,15.3z"/>
</svg>
