<?xml version="1.0" encoding="utf-8"?>
<!-- Generator: Adobe Illustrator 26.0.1, SVG Export Plug-In . SVG Version: 6.00 Build 0)  -->
<svg version="1.1" id="ic_zpiv" xmlns="http://www.w3.org/2000/svg" xmlns:xlink="http://www.w3.org/1999/xlink" x="0px" y="0px"
	 viewBox="0 0 24 24" style="enable-background:new 0 0 24 24;" xml:space="preserve">
<style type="text/css">
	.st0{fill:#FF5533;}
</style>
<path class="st0" d="M20.5,14.8h-6.7c-0.1,0-0.1,0.1-0.1,0.1c0,0,0,0,0,0.1c1.1,1.7,3.1,2.8,5.2,2.7h5.1c0.1,0,0.1,0,0.1-0.1l0,0
	v-2.7c0-0.1,0-0.1-0.1-0.1l0,0L20.5,14.8z M13.7,8.9c0,0.1,0,0.2,0,0.2c0,0,0,0,0.1,0h10.1C24,9.2,24,9.1,24,9V6.4
	c0-0.1-0.1-0.1-0.1-0.1h-5.1C16.8,6.2,14.9,7.2,13.7,8.9z M3.5,9.2h6.6c0.1,0,0.1-0.1,0.1-0.1c0,0,0,0,0-0.1
	C9.2,7.3,7.2,6.2,5.1,6.2H0.1c-0.1,0-0.1,0-0.1,0.1v2.7c0,0.1,0,0.1,0.1,0.1L3.5,9.2z M10.3,15.1c0-0.1,0-0.2,0-0.2c0,0-0.1,0-0.1,0
	H0.1c-0.1,0-0.1,0.1-0.1,0.1l0,0v2.7c0,0.1,0.1,0.1,0.1,0.1h5.1C7.2,17.8,9.1,16.8,10.3,15.1z M7.4,10.6h9.5c0.8,0,1.4,0.6,1.4,1.4
	l0,0c0,0.8-0.6,1.4-1.4,1.4H7.4C6.6,13.4,6,12.8,6,12l0,0C6,11.2,6.6,10.6,7.4,10.6z"/>
</svg>
