<?xml version="1.0" encoding="utf-8"?>
<!-- Generator: Adobe Illustrator 26.0.1, SVG Export Plug-In . SVG Version: 6.00 Build 0)  -->
<svg version="1.1" id="Layer_1" shape-rendering="geometricPrecision"
	 xmlns="http://www.w3.org/2000/svg" xmlns:xlink="http://www.w3.org/1999/xlink" x="0px" y="0px" viewBox="0 0 24 24"
	 style="enable-background:new 0 0 24 24;" xml:space="preserve">
<style type="text/css">
	.st0{fill:#FFFFFF;}
</style>
<path id="Top-Bar-Sync" class="st0" d="M12,19c-2.3,0-4.4-1.1-5.7-3H9v-2H3v6h2v-2.4c2.4,3,6.4,4.1,10,2.9c3.6-1.3,6-4.7,6-8.5h-2
	C19,15.9,15.9,19,12,19z M19,4v2.4c-2.4-3-6.4-4.1-10-2.9S3,8.2,3,12h2c0-3.1,2-5.8,4.9-6.7S16,5.5,17.7,8H15v2h6V4H19z"/>
</svg>
