<?xml version="1.0" encoding="utf-8"?>
<!-- Generator: Adobe Illustrator 26.0.1, SVG Export Plug-In . SVG Version: 6.00 Build 0)  -->
<svg version="1.1" id="checkbox-active-dark" xmlns="http://www.w3.org/2000/svg" xmlns:xlink="http://www.w3.org/1999/xlink"
	 x="0px" y="0px" viewBox="0 0 24 24" style="enable-background:new 0 0 24 24;" xml:space="preserve">
<style type="text/css">
	.st0{fill-rule:evenodd;clip-rule:evenodd;fill:#FF5533;}
	.st1{fill-rule:evenodd;clip-rule:evenodd;fill:#FFFFFF;}
</style>
<path id="check_on_light" class="st0" d="M20.6,1H3.4C2.1,1,1,2.1,1,3.4v17.1C1,21.9,2.1,23,3.4,23h17.1c1.3,0,2.4-1.1,2.4-2.4V3.4
	C23,2.1,21.9,1,20.6,1z M9.6,18.1l-6.1-5.9l1.7-1.6l4.4,4.2l9.3-8.9l1.7,1.6C20.6,7.5,9.6,18.1,9.6,18.1z"/>
<polygon class="st1" points="9.6,18.1 3.4,12.2 5.2,10.6 9.6,14.8 18.8,5.9 20.6,7.5 "/>
</svg>
