<?xml version="1.0" encoding="utf-8"?>
<!-- Generator: Adobe Illustrator 26.0.1, SVG Export Plug-In . SVG Version: 6.00 Build 0)  -->
<svg version="1.1" id="Layer_1" xmlns="http://www.w3.org/2000/svg" xmlns:xlink="http://www.w3.org/1999/xlink" x="0px" y="0px"
	 viewBox="0 0 24 24" style="enable-background:new 0 0 24 24;" xml:space="preserve">
<style type="text/css">
	.st0{fill:#D1D5DB;}
</style>
<path id="Group_8259" transform="translate(1315 405.702)" class="st0" d="M-1302.7-403.7c1.3,0,2.3,1,2.3,2.3c0,1.3-1,2.3-2.3,2.3
	c-1.3,0-2.3-1-2.3-2.3C-1305-402.7-1304-403.7-1302.7-403.7z M-1302.7-388.4c1.3,0,2.3,1,2.3,2.3c0,1.3-1,2.3-2.3,2.3
	c-1.3,0-2.3-1-2.3-2.3C-1305-387.3-1304-388.4-1302.7-388.4z M-1302.7-396c1.3,0,2.3,1,2.3,2.3s-1,2.3-2.3,2.3c-1.3,0-2.3-1-2.3-2.3
	S-1304-396-1302.7-396z"/>
</svg>
