<?xml version="1.0" encoding="utf-8"?>
<!-- Generator: Adobe Illustrator 26.0.1, SVG Export Plug-In . SVG Version: 6.00 Build 0)  -->
<svg version="1.1" id="Layer_1" xmlns="http://www.w3.org/2000/svg" xmlns:xlink="http://www.w3.org/1999/xlink" x="0px" y="0px"
	 viewBox="0 0 24 40" style="enable-background:new 0 0 24 40;" xml:space="preserve">
<style type="text/css">
	.st0{fill:#FF5533;}
</style>
<path class="st0" d="M21,23.1L18.8,13L12,14.2L5.2,13L3,23.1H1v2h22v-2H21z M6.8,15.3l5.2,0.9l5.2-0.9l1.7,7.8H5L6.8,15.3z M13,29.1
	h-2v-2H2v3.7c0.1,2.4,2.1,4.3,4.5,4.3c2.3-0.1,4.2-1.8,4.5-4H13c0.3,2.2,2.2,4,4.5,4c2.4,0,4.4-1.9,4.5-4.3v-3.7h-9V29.1z M9,30.9
	c-0.1,1.3-1.2,2.3-2.5,2.3s-2.4-1-2.5-2.3v-1.7h5V30.9z M15,29.1h5v1.7c-0.1,1.3-1.2,2.3-2.5,2.3s-2.4-1-2.5-2.3V29.1z"/>
</svg>
