<?xml version="1.0" encoding="utf-8"?>
<!-- Generator: Adobe Illustrator 26.0.1, SVG Export Plug-In . SVG Version: 6.00 Build 0)  -->
<svg version="1.1" id="Layer_1" xmlns="http://www.w3.org/2000/svg" xmlns:xlink="http://www.w3.org/1999/xlink" x="0px" y="0px"
	 viewBox="0 0 24 30" style="enable-background:new 0 0 24 30;" xml:space="preserve">
<style type="text/css">
	.st0{fill:#FFFFFF;}
</style>
<path class="st0" d="M21.4,22.4c0.4-1.1,0.6-2.2,0.6-3.4c0-4.4-2.9-8.2-7.1-9.6C14.7,8,13.4,7,12,7S9.3,8,9,9.4
	c-2.6,0.8-4.8,2.6-6,5.1s-1.4,5.3-0.5,7.8c-1,0.6-1.6,1.7-1.6,2.8c0.1,1.2,0.8,2.2,2,2.6c1.1,0.4,2.3,0.1,3.2-0.7
	c3.5,2.5,8.2,2.5,11.7,0c0.8,0.8,2.1,1.1,3.2,0.7c1.1-0.4,1.9-1.4,2-2.6C23.1,24,22.4,22.9,21.4,22.4L21.4,22.4z M12,9
	c0.6,0,1,0.4,1,1s-0.4,1-1,1c-0.6,0-1-0.4-1-1S11.4,9,12,9z M4,26c-0.6,0-1-0.4-1-1c0-0.6,0.4-1,1-1s1,0.4,1,1C5,25.5,4.5,26,4,26z
	 M12,27c-1.8,0-3.6-0.6-5-1.8c0-0.1,0-0.1,0-0.2c0-1.4-1-2.6-2.4-2.9c-0.9-2-0.8-4.3,0.1-6.3s2.6-3.6,4.7-4.3c0.5,1,1.5,1.6,2.6,1.6
	s2.1-0.6,2.6-1.6c3.2,1.1,5.4,4.2,5.4,7.6c0,1.1-0.2,2.1-0.6,3.1C18,22.3,17,23.6,17,25c0,0.1,0,0.1,0,0.2C15.6,26.3,13.8,27,12,27z
	 M20,26c-0.6,0-1-0.4-1-1c0-0.6,0.4-1,1-1c0.6,0,1,0.4,1,1C21,25.5,20.5,26,20,26z M17,23v-8.4l-5,4.1l-5-4.1V23h2v-4.1l3,2.4l3-2.4
	V23H17z"/>
</svg>
