<?xml version="1.0" encoding="utf-8"?>
<!-- Generator: Adobe Illustrator 26.0.1, SVG Export Plug-In . SVG Version: 6.00 Build 0)  -->
<svg version="1.1" id="ic-transaction-staked" xmlns="http://www.w3.org/2000/svg" xmlns:xlink="http://www.w3.org/1999/xlink"
	 x="0px" y="0px" viewBox="0 0 24 24" style="enable-background:new 0 0 24 24;" xml:space="preserve">
<style type="text/css">
	.st0{fill:#D1D5DB;}
</style>
<path class="st0" d="M6.5,16.1c0.2,0.1,0.4,0.1,0.6,0s0.3-0.3,0.4-0.5l0.4-0.8c0-0.1,0.1-0.2,0.1-0.4c0-0.1-0.2-0.2-0.3-0.3H7.6
	c-0.6,0-1,0.8-1.2,1.5c0,0.1,0,0.1,0,0.2C6.4,16,6.4,16.1,6.5,16.1z M9.6,14.6c0-0.2-0.1-0.4-0.3-0.4l0,0H9.2H9.1
	c-0.2,0.1-0.4,0.2-0.5,0.4c-0.2,0.3-0.4,0.6-0.6,1c-0.1,0.1-0.1,0.3-0.2,0.4c-0.1,0.2-0.2,0.3-0.2,0.5c0,0.1,0,0.2,0.1,0.3
	c0.1,0.1,0.2,0.1,0.3,0.1c0.1,0,0.3-0.1,0.4-0.2c0.1-0.1,0.1-0.2,0.2-0.3l0.5-1l0.2-0.3C9.4,15,9.5,14.8,9.6,14.6z M11.2,14.5
	c0-0.1-0.1-0.2-0.3-0.2h-0.2c-0.3,0-0.6,0.2-0.8,0.7L9,16.6c-0.1,0.2-0.2,0.4-0.2,0.6s0.2,0.4,0.4,0.4c0.1,0,0.3,0,0.4-0.1
	c0.1-0.1,0.2-0.2,0.2-0.3l1.3-2.2c0.1-0.1,0.1-0.2,0.1-0.2C11.3,14.6,11.3,14.5,11.2,14.5z M12.5,14.4h-0.1c-0.4,0-0.6,0.4-0.9,0.8
	l-0.1,0.2l-1,1.8c0,0.1-0.1,0.2-0.1,0.3c0,0.1,0,0.2,0,0.3c0.1,0.1,0.1,0.2,0.2,0.2c0.2,0.1,0.4,0.1,0.6-0.1
	c0.1-0.1,0.2-0.2,0.3-0.4l1.3-2.1c0.1-0.2,0.2-0.4,0.2-0.6C12.8,14.6,12.6,14.4,12.5,14.4z M15.8,9.3L15.8,9.3
	c0.1-0.1,0.5-0.6,0.5-0.8c0-0.1,0-0.1,0,0c-0.2,0-0.4,0-0.6,0h-1.3C14.8,8.8,15.3,9.1,15.8,9.3L15.8,9.3z M12,1.2
	c-6.1,0-11,4.9-11,11s4.9,11,11,11s11-4.9,11-11S18.1,1.2,12,1.2z M12,21.2c-4.1,0-7.5-2.7-8.6-6.4h2.8c0.2-0.5,0.5-0.9,0.9-1.1
	c0.3-0.1,0.6-0.1,0.9,0c0.1,0.1,0.3,0.2,0.3,0.3c0.2-0.2,0.5-0.4,0.8-0.4c0.3,0,0.6,0.1,0.8,0.4c0.2-0.2,0.5-0.4,0.8-0.4
	s0.6,0.2,0.8,0.4c0.3-0.2,0.6-0.3,1-0.2c0.4,0.1,0.7,0.5,0.7,0.9c0,0.2-0.1,0.4-0.2,0.6c-0.4,0.7-0.8,1.3-1.2,2
	c0.3,0.4,0.7,0.7,1.2,0.7c0.2,0,0.3-0.1,0.4-0.2c0-0.1,0-0.2,0-0.2c0-0.1-0.1-0.2-0.2-0.2l-0.7-0.7l0.3-0.2l0.8,0.7
	c0.2,0.2,0.5,0.4,0.8,0.4c0.2,0,0.3-0.1,0.4-0.2c0.1-0.1,0.1-0.2,0.1-0.3c-0.1-0.1-0.1-0.2-0.3-0.3l-1-1v-0.2l0.2-0.2v-0.1l0.1,0.1
	c0.5,0.5,1,0.9,1.5,1.3c0.2,0.2,0.5,0.3,0.8,0.3c0.2-0.1,0.4-0.3,0.3-0.6c-0.1-0.2-0.2-0.4-0.4-0.5l-1.5-1.4l0.3-0.3v0.1
	c0.6,0.5,1.2,1.1,1.8,1.6c0.2,0.2,0.5,0.3,0.8,0.4c0.3,0.1,0.5-0.1,0.6-0.4c0.1,0-0.1-0.3-0.3-0.5l-3.1-2.8l-1.5-1.3
	c-0.2-0.2-0.4-0.3-0.6-0.4c-0.4-0.2-0.9-0.2-1.3-0.1c-0.1,0-0.2,0-0.3,0.1l-0.3,0.3c-0.3,0.5-0.7,0.9-1.2,1.2s-1.2,0.2-1.6-0.3
	c0.2-0.3,0.3-0.7,0.4-1c0-0.7,0.3-1.3,0.7-1.8C9.3,9,9.7,8.8,10,8.6l0.3-0.1C9.4,8.4,8.5,8.6,7.8,9.1L7.5,9.3
	C7.3,9.5,7.1,9.6,6.8,9.7S6.2,9.8,6,9.8H4c0,0-0.3-0.1-0.6-0.1C4.4,6,7.9,3.2,12,3.2c4.2,0,7.7,2.9,8.7,6.7c-0.5,0-1.1,0.1-1.2,0.1
	h-2.4c-0.4,0-0.8,0-1.2-0.1c-0.4-0.1-0.9-0.4-1.2-0.7c-0.4-0.3-0.8-0.5-1.3-0.6c-0.3-0.1-0.6-0.1-0.9-0.1h-1c-0.3,0-0.5,0.1-0.8,0.3
	c-0.2,0.1-0.4,0.2-0.6,0.3c-0.4,0.1-0.7,0.4-1,0.7C9,9.9,8.9,10.2,8.8,10.4l-0.6,1.3c0.1,0.1,0.3,0.1,0.4,0.1h0.1
	c0.4-0.1,0.7-0.3,0.9-0.6L9.8,11c0.2-0.3,0.4-0.5,0.7-0.7c0.3-0.2,0.6-0.2,1-0.2h0.4c0.2,0,0.5,0,0.7,0.1c0.2,0.1,0.4,0.2,0.6,0.4
	l4.5,3.9c0.1,0.1,0.2,0.2,0.3,0.2h1.5l1.2-0.1C19.6,18.4,16.1,21.2,12,21.2z"/>
</svg>
