<?xml version="1.0" encoding="utf-8"?>
<!-- Generator: Adobe Illustrator 26.0.1, SVG Export Plug-In . SVG Version: 6.00 Build 0)  -->
<svg version="1.1" id="ic-transaction-staked" xmlns="http://www.w3.org/2000/svg" xmlns:xlink="http://www.w3.org/1999/xlink"
	 x="0px" y="0px" viewBox="0 0 24 24" style="enable-background:new 0 0 24 24;" xml:space="preserve">
<style type="text/css">
	.st0{fill:#BF0000;}
	.st1{fill:#707070;}
</style>
<path class="st0" d="M13.7,13.2c-0.9-1.1-2-1.9-2.5-2.3c-0.4-0.3-0.4,0-0.4,0.1c0.1,0.5,0.3,1.5-1.1,3.1C8,16.4,9.2,18,10.4,18.8
	c0.5,0.4,1.2,0.3,1.2,0.3c0.1,0,0.3,0,0.3-0.1c-0.7-0.4-2.3-1.6-0.1-4.8c0,0-0.1,1.2,0.4,1.6c0.3,0.1,0.8-0.4,0.8-0.4
	s1.1,2.3-0.5,3.3c-0.1,0-0.1,0.1-0.3,0.1c0.1,0.1,0.3,0.1,0.3,0.1c0.8,0,1.7-0.5,2.3-1.7C15.6,15.9,14.8,14.3,13.7,13.2z"/>
<path class="st1" d="M22.2,5.8h-3.3c0.1-0.5,0.1-1-0.1-1.5C18.5,3.6,18,3,17.2,2.6c-0.8-0.4-1.7-0.5-2.5-0.2s-1.5,0.8-1.9,1.5
	L12.1,5l-0.7-1.2C11,3.2,10.3,2.7,9.5,2.4C8.6,2.1,7.7,2.2,7,2.6C5.6,3.2,5,4.5,5.2,5.8H1.9v4.4h1.9L3.9,22h16.3l-0.1-11.8h2.1V5.8z
	 M14.5,4.7c0.2-0.3,0.5-0.5,0.8-0.6c0.2-0.1,0.4-0.1,0.6,0c0.1,0,0.2,0.1,0.3,0.1c0.3,0.1,0.6,0.4,0.7,0.7C17,5.2,17,5.5,16.8,5.7
	H14L14.5,4.7z M7.4,4.7c0.1-0.1,0.1-0.2,0.2-0.3c0,0,0.1-0.1,0.1-0.1c0,0,0.1-0.1,0.2-0.1c0.2-0.1,0.3-0.1,0.5-0.1
	c0.1,0,0.3,0,0.4,0.1c0.3,0.1,0.6,0.3,0.8,0.6l0.6,1H7.3C7.2,5.6,7.2,5.4,7.2,5.1C7.2,5,7.3,4.8,7.4,4.7z M18.2,19.7H5.9v-9.6h12.3
	V19.7z M20.6,8.8h-17V7.1h17V8.8z"/>
</svg>
