<?xml version="1.0" encoding="utf-8"?>
<!-- Generator: Adobe Illustrator 26.0.1, SVG Export Plug-In . SVG Version: 6.00 Build 0)  -->
<svg version="1.1" id="ic-transaction-staked" xmlns="http://www.w3.org/2000/svg" xmlns:xlink="http://www.w3.org/1999/xlink"
	 x="0px" y="0px" viewBox="0 0 24 24" style="enable-background:new 0 0 24 24;" xml:space="preserve">
<style type="text/css">
	.st0{fill:#D1D5DB;}
</style>
<path class="st0" d="M15.6,16.5l-1.1-0.6l1-0.2c0.2,0,0.3-0.2,0.2-0.4c0-0.2-0.2-0.3-0.4-0.2l-1.6,0.4l-1.1-0.6l1.1-0.6l1.6,0.4h0.1
	c0.1,0,0.3-0.1,0.3-0.2c0-0.2-0.1-0.3-0.2-0.4l-1-0.2l1.1-0.6c0.2-0.1,0.2-0.3,0.1-0.4c-0.1-0.1-0.3-0.2-0.4-0.1l-1.1,0.6l0.3-0.9
	c0-0.2-0.1-0.3-0.2-0.4c-0.2,0-0.4,0.1-0.4,0.2l-0.4,1.5l-1.1,0.6v-1.2l1.2-1.1c0.1-0.1,0.1-0.3,0-0.4c-0.1-0.1-0.3-0.1-0.5,0
	l-0.7,0.7v-1.2c0-0.2-0.1-0.3-0.3-0.3s-0.3,0.1-0.3,0.3v1.2L11,11.6c-0.1-0.1-0.3-0.1-0.5,0c-0.1,0.1-0.1,0.3,0,0.4l1.2,1.1v1.2
	l-1.1-0.6l-0.4-1.5c0-0.2-0.2-0.3-0.4-0.2c-0.2,0-0.3,0.2-0.2,0.4l0.3,0.9l-1.1-0.6c-0.2-0.1-0.4,0-0.4,0.1c-0.1,0.1,0,0.3,0.1,0.4
	l1.1,0.6l-1,0.2c-0.2,0-0.3,0.2-0.2,0.4c0,0.1,0.2,0.2,0.3,0.2h0.1l1.6-0.4l1.1,0.6l-1.1,0.6L8.8,15c-0.2,0-0.4,0.1-0.4,0.2
	c0,0.2,0.1,0.3,0.2,0.4l1,0.2l-1.1,0.6c-0.2,0.1-0.2,0.3-0.1,0.4C8.5,16.9,8.6,17,8.7,17s0.1,0,0.2,0l1-0.6l-0.3,1
	c0,0.2,0.1,0.3,0.2,0.4h0.1c0.1,0,0.3-0.1,0.3-0.2l0.4-1.5l1.1-0.6v1.2l-1.2,1.1c-0.1,0.1-0.1,0.3,0,0.4s0.3,0.1,0.5,0l0.7-0.7v1.2
	c0,0.2,0.1,0.3,0.3,0.3s0.3-0.1,0.3-0.3v-1.2l0.7,0.7c0.1,0.1,0.1,0.1,0.2,0.1c0.1,0,0.2,0,0.2-0.1c0.1-0.1,0.1-0.3,0-0.4l-1.2-1.1
	v-1.3l1.1,0.6l0.4,1.5c0,0.1,0.2,0.2,0.3,0.2h0.1c0.2,0,0.3-0.2,0.2-0.4v-0.9l1.1,0.6c0.1,0,0.1,0,0.2,0c0.1,0,0.2-0.1,0.3-0.2
	C15.9,16.8,15.8,16.6,15.6,16.5z M22.2,5.8h-3.3c0.1-0.5,0.1-1-0.1-1.5C18.5,3.6,18,3,17.2,2.6c-0.8-0.4-1.7-0.5-2.5-0.2
	s-1.5,0.8-1.9,1.5L12.1,5l-0.7-1.2C11,3.2,10.3,2.7,9.5,2.4C8.6,2.1,7.7,2.2,7,2.6C5.6,3.2,5,4.5,5.2,5.8H1.9v4.4h1.9L3.9,22h16.3
	l-0.1-11.8h2.1V5.8z M15.3,4.1c0.2-0.1,0.4-0.1,0.6,0c0.1,0,0.2,0.1,0.3,0.1c0.3,0.1,0.6,0.4,0.7,0.7C17,5.2,17,5.5,16.8,5.7H14
	l0.5-1C14.7,4.4,15,4.2,15.3,4.1z M7.4,4.7c0.1-0.1,0.1-0.2,0.2-0.3c0,0,0.1-0.1,0.1-0.1c0,0,0.1-0.1,0.2-0.1
	c0.2-0.1,0.3-0.1,0.5-0.1c0.1,0,0.3,0,0.4,0.1c0.3,0.1,0.6,0.3,0.8,0.6l0.6,1H7.3C7.2,5.6,7.2,5.4,7.2,5.1C7.2,5,7.3,4.8,7.4,4.7z
	 M18.2,19.7H5.9v-9.6h12.3V19.7z M20.6,8.8h-17V7.1h17V8.8z"/>
</svg>
