<?xml version="1.0" encoding="utf-8"?>
<!-- Generator: Adobe Illustrator 26.0.1, SVG Export Plug-In . SVG Version: 6.00 Build 0)  -->
<svg version="1.1" id="Group_9077" xmlns="http://www.w3.org/2000/svg" xmlns:xlink="http://www.w3.org/1999/xlink" x="0px" y="0px"
	 viewBox="0 0 24 24" style="enable-background:new 0 0 24 24;" xml:space="preserve">
<style type="text/css">
	.st0{opacity:0.7;fill:#FFFFFF;enable-background:new    ;}
</style>
<path class="st0" d="M12,16c-2.2,0-4-1.8-4-4s1.8-4,4-4s4,1.8,4,4C16,14.2,14.3,16,12,16C12.1,16,12,16,12,16z M12,9.6
	c-1.3,0-2.4,1.1-2.4,2.4s1.1,2.4,2.4,2.4s2.4-1.1,2.4-2.4l0,0C14.4,10.7,13.4,9.6,12,9.6C12.1,9.6,12,9.6,12,9.6z M12,20
	c-4.6,0-8.3-2.6-10.9-7.6c-0.2-0.3-0.2-0.6,0-0.9C3.7,6.6,7.4,4,12,4s8.3,2.6,10.9,7.6c0.2,0.3,0.2,0.6,0,0.9
	C20.3,17.4,16.6,20,12,20z M2.7,12c1.6,2.9,4.5,6.2,9.3,6.2s7.7-3.3,9.3-6.2c-1.6-2.9-4.5-6.2-9.3-6.2S4.3,9.1,2.7,12z"/>
</svg>
