<?xml version="1.0" encoding="utf-8"?>
<!-- Generator: Adobe Illustrator 26.0.1, SVG Export Plug-In . SVG Version: 6.00 Build 0)  -->
<svg version="1.1" id="Layer_1" xmlns="http://www.w3.org/2000/svg" xmlns:xlink="http://www.w3.org/1999/xlink" x="0px" y="0px"
	 viewBox="0 0 100 100" style="enable-background:new 0 0 100 100;" xml:space="preserve">
<style type="text/css">
	.st0{fill:#5E5E5E;}
	.st1{fill:#D1D5DB;}
</style>
<g id="Group_9023">
	<circle id="Ellipse_618" class="st0" cx="50" cy="50" r="12"/>
	<circle id="Ellipse_619" class="st0" cx="50" cy="16" r="8"/>
	<circle id="Ellipse_620" class="st0" cx="50" cy="84" r="8"/>
	<circle id="Ellipse_621" class="st0" cx="20.6" cy="33" r="8"/>
	<circle id="Ellipse_622" class="st0" cx="79.4" cy="67" r="8"/>
	<circle id="Ellipse_623" class="st0" cx="20.6" cy="67" r="8"/>
	<circle id="Ellipse_624" class="st0" cx="79.4" cy="33" r="8"/>
</g>
<path id="Path_18980" class="st1" d="M83.9,59.2c-1.1-0.6-2.3-1-3.5-1.1V48h-2v10.1c-2.5,0.3-4.7,1.6-6.2,3.6l-10.5-6.1
	c1.7-3.5,1.7-7.7,0-11.2l10.5-6.1c1.5,2,3.7,3.3,6.2,3.6V44h2v-2.1c4.9-0.5,8.5-5,8-9.9s-5-8.5-9.9-8c-2.5,0.3-4.8,1.6-6.3,3.6
	l-14-8.1c2-4.6-0.1-9.9-4.6-11.9s-9.9,0.1-11.9,4.6c-1,2.3-1,4.9,0,7.2l-14,8.1c-2.9-4-8.6-4.9-12.6-1.9s-4.9,8.6-1.9,12.6
	c1.5,2,3.8,3.3,6.3,3.6V52h2V41.9c2.5-0.3,4.7-1.6,6.2-3.6l10.5,6.1c-1.7,3.5-1.7,7.7,0,11.2l-10.5,6.1c-1.5-2-3.7-3.3-6.2-3.6V56
	h-2v2.1c-4.9,0.5-8.5,5-8,9.9s5,8.5,9.9,8c2.5-0.3,4.8-1.6,6.3-3.6l14,8.1c-2,4.6,0.1,9.9,4.6,11.9s9.9-0.1,11.9-4.6
	c1-2.3,1-4.9,0-7.2l14-8.1c2.9,4,8.6,4.9,12.6,1.9c4-2.9,4.9-8.6,1.9-12.6C86,60.7,85,59.8,83.9,59.2z M50,61c-6.1,0-11-4.9-11-11
	s4.9-11,11-11s11,4.9,11,11l0,0C61,56.1,56.1,61,50,61z M75.9,26.9c3.3-1.9,7.6-0.8,9.6,2.6c1.9,3.3,0.8,7.6-2.6,9.6
	c-3.3,1.9-7.6,0.8-9.6-2.6c-0.9-1.6-1.2-3.5-0.7-5.3C73.2,29.4,74.3,27.9,75.9,26.9z M50,9c3.9,0,7,3.1,7,7s-3.1,7-7,7s-7-3.1-7-7
	C43,12.1,46.1,9,50,9z M26.6,36.5c-1.9,3.3-6.2,4.5-9.6,2.6c-1.6-0.9-2.8-2.5-3.3-4.2c-0.5-1.8-0.2-3.7,0.7-5.3
	c1.9-3.3,6.2-4.5,9.6-2.6C27.4,28.9,28.6,33.2,26.6,36.5z M28.8,36.6c0.8-1.9,1-4,0.5-5.9c-0.1-0.4-0.3-0.9-0.5-1.3l14-8.1
	c1.5,2,3.7,3.3,6.2,3.6V28h2v-3.1c2.5-0.3,4.7-1.6,6.2-3.6l14,8.1c-0.2,0.4-0.3,0.8-0.5,1.3c-0.5,2-0.4,4.1,0.4,5.9l-10.5,6.1
	c-2.2-3.2-5.8-5.3-9.7-5.6V32h-2v5.1c-3.9,0.3-7.5,2.4-9.7,5.6L28.8,36.6z M24.1,73.1c-3.3,1.9-7.6,0.8-9.6-2.6
	c-1.9-3.3-0.8-7.6,2.6-9.6c3.3-1.9,7.6-0.8,9.6,2.6c0.9,1.6,1.2,3.5,0.7,5.3C26.8,70.6,25.7,72.1,24.1,73.1z M50,91
	c-3.9,0-7-3.1-7-7s3.1-7,7-7s7,3.1,7,7C57,87.9,53.9,91,50,91z M57.2,78.7c-1.5-2-3.7-3.3-6.2-3.6V72h-2v3.1
	c-2.5,0.3-4.7,1.6-6.2,3.6l-14-8.1c0.2-0.4,0.3-0.8,0.5-1.3c0.5-2,0.4-4.1-0.4-5.9l10.5-6.1c2.2,3.2,5.8,5.3,9.7,5.6V68h2v-5.1
	c3.9-0.3,7.5-2.4,9.7-5.6l10.5,6.1c-0.8,1.9-1,4-0.5,5.9c0.1,0.4,0.3,0.9,0.5,1.3L57.2,78.7z M85.5,70.5c-1.9,3.3-6.2,4.5-9.6,2.6
	c-3.3-1.9-4.5-6.2-2.6-9.6c2-3.3,6.2-4.5,9.6-2.5C86.3,62.9,87.4,67.2,85.5,70.5z"/>
</svg>
