<?xml version="1.0" encoding="utf-8"?>
<!-- Generator: Adobe Illustrator 26.0.1, SVG Export Plug-In . SVG Version: 6.00 Build 0)  -->
<svg version="1.1" id="Group_9058" xmlns="http://www.w3.org/2000/svg" xmlns:xlink="http://www.w3.org/1999/xlink" x="0px" y="0px"
	 viewBox="0 0 100 100" style="enable-background:new 0 0 100 100;" xml:space="preserve">
<style type="text/css">
	.st0{fill:#FFFFFF;}
	.st1{fill:#FF5533;}
	.st2{fill:#D1D5DB;}
</style>
<rect x="33.8" y="8" class="st0" width="52" height="84"/>
<path id="Group_9055" class="st1" d="M22.8,8h11v84h-11V8z M85.8,17h5v12h-5V17z M85.8,38h5v12h-5V38z M85.8,59h5v12h-5V59z
	 M59.8,27c5,0,9,4,9,9s-4,9-9,9s-9-4-9-9S54.9,27,59.8,27z M75.4,64c-3.1-8.8-7.1-15-15.3-15s-12.5,6.2-15.8,15H75.4z"/>
<path id="Group_9056" class="st2" d="M68.8,7h4v2h-4V7z M32.8,76h2v4h-2V76z M91.8,30V16h-5V7h-10v2h8v82h-50v-7h-2v7h-9V9h9v63h2V9
	h30V7h-43v86h65V72h5V58h-5v-7h5V37h-5v-7H91.8z M86.8,18h3v10h-3V18z M89.8,60v10h-3V60H89.8z M89.8,39v10h-3V39H89.8z M49.8,36
	c0,5.5,4.5,10,10,10s10-4.5,10-10s-4.5-10-10-10C54.3,26,49.9,30.5,49.8,36z M67.8,36c0,4.4-3.6,8-8,8s-8-3.6-8-8s3.6-8,8-8
	C64.3,28,67.8,31.6,67.8,36z M60.1,48c-9.7,0-14,8.4-16.7,15.7L42.9,65h33.9l-0.5-1.3C73.7,55.9,69.6,48,60.1,48z M45.8,63
	c3.6-9.1,7.9-13,14.3-13c6.4,0,10.4,3.8,13.9,13H45.8z"/>
</svg>
