<?xml version="1.0" encoding="utf-8"?>
<!-- Generator: Adobe Illustrator 27.1.0, SVG Export Plug-In . SVG Version: 6.00 Build 0)  -->
<svg version="1.1" id="ic_empty_Dark_zpiv" xmlns="http://www.w3.org/2000/svg" xmlns:xlink="http://www.w3.org/1999/xlink" x="0px"
	 y="0px" viewBox="0 0 100 100" style="enable-background:new 0 0 100 100;" xml:space="preserve">
<style type="text/css">
	.st0{fill:#3C3C3B;}
	.st1{fill:#D1D5DB;}
</style>
<path id="Path_19026" class="st0" d="M50,26c-13.3,0-24,10.7-24,24s10.7,24,24,24s24-10.7,24-24S63.3,26,50,26z M50,68
	c-9.9,0-18-8.1-18-18s8.1-18,18-18s18,8.1,18,18S59.9,68,50,68z"/>
<path class="st1" d="M50,31c-10.5,0-19,8.5-19,19s8.5,19,19,19s19-8.5,19-19C69,39.5,60.5,31,50,31z M50,67c-9.4,0-17-7.6-17-17
	s7.6-17,17-17s17,7.6,17,17C67,59.4,59.4,67,50,67z M83,56h2v4h-2V56z M83,44h2v8h-2V44z M15,48h2v8h-2V48z M15,40h2v4h-2V40z
	 M95.2,71H85v-7h-2v9h7.8L76,90.5L61.2,73H68v-2h-4.5c11.6-7.5,15-22.9,7.5-34.5c-6.4-9.9-18.9-14-29.9-9.8L24,6.5L4.8,29H15v7h2v-9
	H9.2L24,9.5L38.8,27H32v2h4.5c-11.6,7.5-15,22.9-7.5,34.5c6.4,9.9,18.9,14,29.9,9.8L76,93.5L95.2,71z M27,50c0-12.7,10.3-23,23-23
	s23,10.3,23,23S62.7,73,50,73C37.3,73,27,62.7,27,50z M59.5,52h-7.4C52.1,52,52,52,52,52.1c0,0,0,0.1,0,0.1c1.3,1.9,3.4,3.1,5.7,3
	h5.6c0.1,0,0.2-0.1,0.2-0.2l0,0v-3c0-0.1-0.1-0.2-0.2-0.2l0,0L59.5,52z M52.1,45.5c-0.1,0.1,0,0.2,0.1,0.2c0,0,0.1,0,0.1,0h11.1
	c0.1,0,0.2-0.1,0.2-0.2v-3c0-0.1-0.1-0.2-0.2-0.2h-5.6C55.5,42.5,53.3,43.6,52.1,45.5z M40.8,45.7h7.3c0.1,0,0.2-0.1,0.2-0.2
	c0,0,0-0.1,0-0.1c-1.3-1.9-3.4-3-5.7-3H37c-0.1,0-0.1,0.1-0.1,0.1v3c0,0.1,0.1,0.2,0.2,0.2L40.8,45.7z M48.3,52.2
	c0.1-0.1,0-0.2-0.1-0.2c0,0-0.1,0-0.1,0H37c-0.1,0-0.2,0.1-0.2,0.2l0,0V55c0,0.1,0.1,0.2,0.2,0.2h5.6C44.9,55.2,47,54.1,48.3,52.2z
	 M45.1,47.3h10.5c0.9,0,1.6,0.7,1.6,1.6l0,0c0,0.9-0.7,1.6-1.6,1.6H45.1c-0.9,0-1.6-0.7-1.6-1.6l0,0C43.5,48,44.2,47.3,45.1,47.3z"
	/>
</svg>
