<?xml version="1.0" encoding="utf-8"?>
<!-- Generator: Adobe Illustrator 26.0.1, SVG Export Plug-In . SVG Version: 6.00 Build 0)  -->
<svg version="1.1" id="ic_empty_masternode" xmlns="http://www.w3.org/2000/svg" xmlns:xlink="http://www.w3.org/1999/xlink"
	 x="0px" y="0px" viewBox="0 0 100 100" style="enable-background:new 0 0 100 100;" xml:space="preserve">
<style type="text/css">
	.st0{fill:#6B6B6B;}
	.st1{fill:#D1D5DB;}
</style>
<path id="Group_9020" class="st0" d="M52,8c4.6,0,8.4,3.8,8.4,8.4s-3.8,8.4-8.4,8.4s-8.4-3.8-8.4-8.4S47.4,8,52,8z M85.6,71
	c4.6,0,8.4,3.8,8.4,8.4s-3.8,8.4-8.4,8.4s-8.4-3.8-8.4-8.4S81,71,85.6,71z M18.4,71c4.6,0,8.4,3.8,8.4,8.4s-3.8,8.4-8.4,8.4
	S10,84,10,79.4S13.8,71,18.4,71z M39.2,53.2V71h-8V36.3L52,53.2l20.8-16.9V71h-8V53.2L52,63.6"/>
<path id="Group_9021" class="st1" d="M30.2,34.2V72h10V55.3l3.9,3.2l1.3-1.6l-7.1-5.8V70h-6V38.4L52,54.5l19.8-16.1V52h2V34.2L52,52
	L30.2,34.2z M71.8,70h-6V51.1L52,62.3l-3.7-3L47,60.8l5,4l11.8-9.6V72h10v-8h-2V70z M71.8,56h2v4h-2V56z M87.4,70.2
	c2.3-5,3.5-10.5,3.4-16c-0.1-17.8-12.2-33.3-29.4-37.6c0-0.1,0-0.1,0-0.2c0-5.2-4.2-9.4-9.4-9.4c-5.2,0-9.4,4.2-9.4,9.4
	c0,0.1,0,0.1,0,0.2c-20.8,5.2-33.4,26.2-28.3,47c0.6,2.3,1.3,4.5,2.3,6.6c-5.1,1-8.5,5.9-7.5,11c1,5.1,5.9,8.5,11,7.5
	c2.9-0.5,5.3-2.4,6.6-5c14.5,12.5,35.9,12.5,50.5,0c2.4,4.6,8,6.5,12.6,4.1s6.5-8,4.1-12.6C92.7,72.5,90.2,70.7,87.4,70.2z M52,9
	c4.1,0,7.4,3.3,7.4,7.4s-3.3,7.4-7.4,7.4s-7.4-3.3-7.4-7.4C44.6,12.3,47.9,9,52,9z M18.4,86.8c-4.1,0-7.4-3.3-7.4-7.4
	s3.3-7.4,7.4-7.4s7.4,3.3,7.4,7.4C25.8,83.5,22.5,86.8,18.4,86.8z M52,91c-9,0-17.8-3.3-24.5-9.3c1.3-5-1.8-10.1-6.8-11.4
	c-0.6-0.2-1.3-0.3-2-0.3c-8.7-18.3-1-40.3,17.4-49c2.1-1,4.4-1.8,6.7-2.4c1.2,5,6.2,8.2,11.3,7c3.5-0.8,6.2-3.5,7-7
	c16.2,4.3,27.6,18.9,27.7,35.6c0,5.5-1.2,10.9-3.6,15.8c-5.2,0.2-9.2,4.5-9,9.7c0,0.7,0.1,1.3,0.3,2C69.8,87.7,61,91,52,91z
	 M85.6,86.8c-4.1,0-7.4-3.3-7.4-7.4s3.3-7.4,7.4-7.4s7.4,3.3,7.4,7.4C93,83.5,89.7,86.8,85.6,86.8z"/>
</svg>
