<?xml version="1.0" encoding="utf-8"?>
<!-- Generator: Adobe Illustrator 26.0.1, SVG Export Plug-In . SVG Version: 6.00 Build 0)  -->
<svg version="1.1" id="ic_empty_contacts" xmlns="http://www.w3.org/2000/svg" xmlns:xlink="http://www.w3.org/1999/xlink" x="0px"
	 y="0px" viewBox="0 0 100 100" style="enable-background:new 0 0 100 100;" xml:space="preserve">
<style type="text/css">
	.st0{fill:#A1A1A1;}
	.st1{fill:#D1D5DB;}
</style>
<path id="Group_9025" class="st0" d="M18,8h11v84H18V8z M81,17h5v12h-5V17z M81,38h5v12h-5V38z M81,59h5v12h-5V59z M55,27
	c5,0,9,4,9,9s-4,9-9,9s-9-4-9-9S50,27,55,27z M70.6,64c-3.1-8.8-7.1-15-15.3-15s-12.5,6.2-15.8,15H70.6z"/>
<path id="Group_9026" class="st1" d="M64,7h4v2h-4V7z M28,76h2v4h-2V76z M87,30V16h-5V7H72v2h8v82H30v-7h-2v7h-9V9h9v63h2V9h30V7H17
	v86h65V72h5V58h-5v-7h5V37h-5v-7H87z M82,18h3v10h-3V18z M85,60v10h-3V60H85z M85,39v10h-3V39H85z M45,36c0,5.5,4.5,10,10,10
	s10-4.5,10-10s-4.5-10-10-10C49.5,26,45,30.5,45,36z M63,36c0,4.4-3.6,8-8,8s-8-3.6-8-8s3.6-8,8-8C59.4,28,63,31.6,63,36z M55.2,48
	c-9.7,0-14,8.4-16.7,15.7L38.1,65H72l-0.5-1.3C68.8,55.9,64.8,48,55.2,48z M41,63c3.6-9.1,7.9-13,14.3-13c6.4,0,10.4,3.8,13.9,13H41
	z"/>
</svg>
