<?xml version="1.0" encoding="utf-8"?>
<!-- Generator: Adobe Illustrator 27.1.0, SVG Export Plug-In . SVG Version: 6.00 Build 0)  -->
<svg version="1.1" id="Layer_1" xmlns="http://www.w3.org/2000/svg" xmlns:xlink="http://www.w3.org/1999/xlink" x="0px" y="0px"
	 viewBox="0 0 100 100" style="enable-background:new 0 0 100 100;" xml:space="preserve">
<style type="text/css">
	.st0{fill:#3C3C3B;}
	.st1{fill:#D1D5DB;}
</style>
<path id="Group_9005" class="st0" d="M50,56c7.7,0,14,6.3,14,14s-6.3,14-14,14s-14-6.3-14-14S42.3,56,50,56z M41,28h18v18H41V28z"/>
<path id="Group_9009" class="st1" d="M81,58h2v4h-2V58z M81,91H19v-7h-2v9h66V66h-2V91z M17,76h2v4h-2V76z M80,27v2h7v16H60V29h16
	v-2h-9.7c5-3.5,6.2-10.3,2.7-15.3c-3.5-5-10.3-6.2-15.3-2.7c-1.6,1.1-2.9,2.7-3.7,4.5c-2.5-5.5-9-8-14.6-5.5s-8,9-5.5,14.6
	c0.8,1.8,2.1,3.3,3.7,4.5H11v20h6v25h2V47h62v7h2v-7h6V27H80z M60,9c5,0,9,4,9,9s-4,9-9,9l0,0h-9v-9C51,13,55,9,60,9z M31,18
	c0-5,4-9,9-9s9,4,9,9v9h-9C35,27,31,23,31,18z M17,45h-4V29h27v16H17z M42,45V29h16v16H42z M55,55.9V58c6.6,2.8,9.8,10.4,7,17
	s-10.4,9.8-17,7s-9.8-10.4-7-17c1.3-3.2,3.8-5.7,7-7v-2.1c-7.8,2.8-11.9,11.3-9.1,19.1S47.2,86.9,55,84.2S66.9,72.8,64.1,65
	C62.6,60.7,59.3,57.4,55,55.9z M49,52h2v20h-2V52z"/>
</svg>
