<?xml version="1.0" encoding="utf-8"?>
<!-- Generator: Adobe Illustrator 27.1.0, SVG Export Plug-In . SVG Version: 6.00 Build 0)  -->
<svg version="1.1" id="Layer_1" xmlns="http://www.w3.org/2000/svg" xmlns:xlink="http://www.w3.org/1999/xlink" x="0px" y="0px"
	 viewBox="0 0 300 100" style="enable-background:new 0 0 300 100;" xml:space="preserve">
<style type="text/css">
	.st0{fill:#FF5533;}
	.st1{fill:#FFFFFF;}
</style>
<path class="st0" d="M108.3,61.6H80.7c-0.3,0-0.6,0.3-0.6,0.6c0,0.1,0,0.2,0.1,0.3C84.9,69.7,93,74,101.6,73.9h21
	c0.3,0,0.6-0.2,0.6-0.6l0,0V62.1c0-0.3-0.2-0.6-0.6-0.6l0,0L108.3,61.6z M80.3,37.3c-0.2,0.3-0.1,0.7,0.2,0.9
	c0.1,0.1,0.2,0.1,0.3,0.1h41.7c0.4,0,0.6-0.3,0.6-0.6V26.6c0-0.3-0.3-0.6-0.6-0.6h-21C93.1,26,85.1,30.2,80.3,37.3z M38.1,38.3h27.5
	c0.3,0,0.6-0.3,0.6-0.6c0-0.1,0-0.2-0.1-0.3C61.4,30.3,53.3,26,44.7,26.1h-21c-0.3,0-0.5,0.2-0.5,0.5v11.2c0,0.3,0.2,0.6,0.6,0.6
	L38.1,38.3z M66.1,62.6c0.2-0.3,0.1-0.7-0.2-0.9c-0.1-0.1-0.3-0.1-0.4-0.1H23.8c-0.3,0-0.6,0.3-0.6,0.6l0,0v11
	c0,0.3,0.3,0.6,0.6,0.6h21C53.3,73.9,61.3,69.7,66.1,62.6z M54.2,44.1h39.2c3.2,0,5.9,2.6,5.9,5.9l0,0c0,3.2-2.6,5.9-5.9,5.9H54.2
	c-3.2,0-5.9-2.6-5.9-5.9l0,0C48.3,46.7,51,44.1,54.2,44.1z"/>
<g>
	<path class="st1" d="M147.1,74.4V25.6H161c2.7,0,5,0.1,6.8,0.2c1.9,0.1,3.4,0.3,4.6,0.6c2.1,0.5,3.9,1.3,5.5,2.5
		c1.8,1.3,3.1,3,4,5.1c1,2,1.4,4.3,1.4,6.8c0,3.8-0.9,6.8-2.8,9.2c-1.8,2.4-4.5,4-8.1,4.7l13.3,19.7h-15l-11.2-19.1v19.1H147.1z
		 M159.6,48.7h2.5c2.9,0,5-0.5,6.3-1.4c1.3-1.1,2-2.6,2-4.6c0-2.4-0.6-4.2-1.8-5.2c-1.2-1-3.3-1.6-6.2-1.6h-2.7V48.7z"/>
	<path class="st1" d="M203.3,74.4h-12.5V25.6h13.9c5.4,0,9.2,0.3,11.5,0.8c2.2,0.6,4.1,1.5,5.6,2.7c1.8,1.5,3.1,3.3,4.1,5.5
		c1,2.2,1.4,4.7,1.4,7.5c0,2.9-0.5,5.5-1.4,7.7c-0.8,2.2-2.2,4-4.1,5.5c-1.4,1.1-3,1.8-4.9,2.3c-1.7,0.5-4.7,0.7-8.9,0.7h-2.3h-2.4
		V74.4z M203.3,47.6h2.5c3.2,0,5.4-0.5,6.7-1.4c1.3-0.8,1.9-2.3,1.9-4.4c0-2-0.6-3.5-1.9-4.4c-1.2-0.9-3.4-1.3-6.6-1.3h-2.7V47.6z"
		/>
	<path class="st1" d="M234.2,74.4V25.6h10.2c7.7,0,13.1,0.4,16.1,1.1c3.2,0.7,5.9,1.9,8.3,3.6c3.1,2.1,5.5,4.9,7,8.3
		c1.6,3.4,2.4,7.2,2.4,11.5s-0.8,8.1-2.4,11.5c-1.6,3.3-3.9,6.1-7,8.3c-2.4,1.7-5.1,2.8-8.1,3.5c-2.9,0.7-7.6,1.1-14.1,1.1h-2.2
		H234.2z M247.3,63.5h2.2c5.2,0,9.1-1.1,11.4-3.3c2.4-2.1,3.6-5.5,3.6-10.2c0-4.6-1.2-8-3.6-10.2c-2.4-2.2-6.2-3.3-11.4-3.3h-2.2
		V63.5z"/>
</g>
</svg>
