<?xml version="1.0" encoding="utf-8"?>
<!-- Generator: Adobe Illustrator 27.1.0, SVG Export Plug-In . SVG Version: 6.00 Build 0)  -->
<svg version="1.1" id="ic_empty_zpiv" xmlns="http://www.w3.org/2000/svg" xmlns:xlink="http://www.w3.org/1999/xlink" x="0px"
	 y="0px" viewBox="0 0 100 100" style="enable-background:new 0 0 100 100;" xml:space="preserve">
<style type="text/css">
	.st0{fill:#3C3C3B;}
	.st1{fill:#D1D5DB;}
</style>
<path id="Path_19031" class="st0" d="M50,26c-13.3,0-24,10.7-24,24s10.7,24,24,24s24-10.7,24-24S63.3,26,50,26z M50,68
	c-9.9,0-18-8.1-18-18s8.1-18,18-18s18,8.1,18,18S59.9,68,50,68z"/>
<path id="Group_9083" class="st1" d="M50,31c-10.5,0-19,8.5-19,19s8.5,19,19,19s19-8.5,19-19C69,39.5,60.5,31,50,31z M50,67
	c-9.4,0-17-7.6-17-17s7.6-17,17-17s17,7.6,17,17C67,59.4,59.4,67,50,67z M83,56h2v4h-2V56z M83,44h2v8h-2V44z M15,48h2v8h-2V48z
	 M15,40h2v4h-2V40z M95.2,71H85v-7h-2v9h7.8L76,90.5L61.2,73H68v-2h-4.5c11.6-7.5,15-22.9,7.5-34.5c-6.4-9.9-18.9-14-29.9-9.8
	L24,6.5L4.8,29H15v7h2v-9H9.2L24,9.5L38.8,27H32v2h4.5c-11.6,7.5-15,22.9-7.5,34.5c6.4,9.9,18.9,14,29.9,9.8L76,93.5L95.2,71z
	 M27,50c0-12.7,10.3-23,23-23s23,10.3,23,23S62.7,73,50,73C37.3,73,27,62.7,27,50z M59.6,52.6H52c-0.1,0-0.2,0.1-0.2,0.2
	c0,0,0,0.1,0,0.1c1.3,2,3.5,3.1,5.8,3.1h5.7c0.1,0,0.2-0.1,0.2-0.2l0,0v-3.1c0-0.1-0.1-0.2-0.2-0.2l0,0L59.6,52.6z M51.9,46
	c-0.1,0.1,0,0.2,0.1,0.2c0,0,0.1,0,0.1,0h11.4c0.1,0,0.2-0.1,0.2-0.2v-3c0-0.1-0.1-0.2-0.2-0.2h-5.7C55.4,42.9,53.3,44.1,51.9,46z
	 M40.4,46.3h7.5c0.1,0,0.2-0.1,0.2-0.2c0,0,0-0.1,0-0.1c-1.3-1.9-3.5-3.1-5.8-3.1h-5.7c-0.1,0-0.1,0.1-0.1,0.1v3.1
	c0,0.1,0.1,0.2,0.2,0.2L40.4,46.3z M48.1,52.9c0.1-0.1,0-0.2-0.1-0.2c0,0-0.1,0-0.1,0H36.5c-0.1,0-0.2,0.1-0.2,0.2l0,0v3
	c0,0.1,0.1,0.2,0.2,0.2h5.7C44.6,56,46.7,54.9,48.1,52.9z M44.8,47.9h10.7c0.9,0,1.6,0.7,1.6,1.6l0,0c0,0.9-0.7,1.6-1.6,1.6H44.8
	c-0.9,0-1.6-0.7-1.6-1.6l0,0C43.2,48.6,43.9,47.9,44.8,47.9z"/>
</svg>
