<?xml version="1.0" encoding="utf-8"?>
<!-- Generator: Adobe Illustrator 26.0.1, SVG Export Plug-In . SVG Version: 6.00 Build 0)  -->
<svg version="1.1" id="Layer_1" xmlns="http://www.w3.org/2000/svg" xmlns:xlink="http://www.w3.org/1999/xlink" x="0px" y="0px"
	 viewBox="0 0 72.7 72.7" style="enable-background:new 0 0 72.7 72.7;" xml:space="preserve">
<style type="text/css">
	.st0{opacity:0.999;fill:#FFFFFF;}
</style>
<path id="img_Qr" class="st0" d="M34.7,10.4v-7c-1.1,0-2.2,0-3.2,0c-0.1,0-0.3,0.3-0.3,0.5c0,0.9,0,1.9,0,2.9h-3.4V0h10.4v6.9h3.6V0
	H45v10.4h-3.5v7H45v13.8h3.5v-3.4h3.4v6.9H41.6v3.9c0,0.7,0,1.5,0,2.3c0,0.6-0.2,0.8-0.8,0.7c-0.9,0-1.7,0-2.8,0v3.6h-3.4v3.4
	c-1,0-1.9,0-2.8,0c-0.5,0-0.7,0.1-0.7,0.7c0,0.9,0,1.8,0,2.8h3.6v3.5h-6.9V45.2h3.4v-3.5h3.5v-6.9h-3.5v6.8h-3.4V31.4h3.4v-3.6h-3.5
	V21h3.4c0,0.9,0,1.8,0,2.7c0,0.6,0.1,0.8,0.8,0.8c0.9,0,1.8,0,2.8,0v6.8H38v-6.9c1,0,2,0,3,0c0.4,0,0.6-0.1,0.6-0.6v-2.4
	c0-0.4-0.1-0.6-0.6-0.6h-2.9V10.5C36.9,10.3,35.8,10.3,34.7,10.4L34.7,10.4z M24.3,0c0,0.3,0,0.6,0,0.9v22.4c0,0.7-0.2,0.9-0.9,0.9
	c-7.4,0-14.9,0-22.4,0c-0.3,0-0.6,0-0.9,0V0H24.3z M20.7,3.5c-0.2,0-0.4,0-0.6,0h-16c-0.6,0-0.7,0.2-0.7,0.7v16c0,0.2,0,0.4,0,0.6
	h17.3V3.5z M72.7,24.3c-0.3,0-0.6,0-0.9,0H49.3c-0.7,0-0.9-0.2-0.9-0.9c0-7.4,0-14.9,0-22.4c0-0.3,0-0.6,0-0.9h24.3L72.7,24.3z
	 M69.2,20.7c0-0.3,0-0.5,0-0.8V4.2c0-0.7-0.2-0.8-0.8-0.8H51.9v17.3L69.2,20.7z M0,48.4c0.3,0,0.6,0,0.9,0h22.4
	c0.7,0,0.9,0.2,0.9,0.9c0,7.5,0,14.9,0,22.4c0,0.3,0,0.6,0,0.9H0C0,64.5,0,56.4,0,48.4z M20.7,51.9c-0.2,0-0.3,0-0.4,0H4
	c-0.6,0-0.6,0.3-0.6,0.7v15.8c0,0.6,0.2,0.8,0.8,0.8c5.2,0,10.5,0,15.7,0c0.7,0,0.9-0.1,0.9-0.8c0-5.2,0-10.5,0-15.7
	C20.8,52.5,20.8,52.2,20.7,51.9z M0,27.7h3.4V45H0V27.7z M72.7,31.1h-6.9v-3.4h6.9V31.1z M48.4,65.7v7H45c0-2.3,0-4.6,0-7h0
	C46.1,65.7,47.3,65.7,48.4,65.7z M27.7,72.6v-3.4h7v3.4H27.7z M72.7,69.2h-3.4v-3.5h3.4V69.2z M72.7,38h-3.4v-3.4h3.4V38z
	 M72.7,58.7h-3.4v-3.4h3.4V58.7z M55.4,72.6v-3.4h3.4v3.4H55.4z M55.4,69.2H52v-3.6h-3.6c0-1.5,0-3.1,0.1-4.6v-2.3h-6.9v-3.4h10.3
	v-7h3.4v3.5h3.5c0,0.3,0,0.6,0,0.9v5.4c0,0.5,0.1,0.7,0.7,0.7h9.7v3.4H55.3C55.4,64.6,55.4,66.9,55.4,69.2L55.4,69.2z M62.3,45v-3.5
	h-6.9V45h-3.5v-3.5h-3.5c0-1.1,0-2.1,0-3.1c0-0.1,0.4-0.3,0.6-0.3h9.7V27.8h3.4v6.9h3.4V45C64.6,45,63.4,45,62.3,45L62.3,45z
	 M34.6,69.2v-3.6h-6.9v-6.9h6.9v-3.5H38v3.5c0.9,0,1.8,0,2.7,0c0.6,0,0.8,0.1,0.8,0.7c0,0.9,0,1.7,0,2.7h-3.5v7
	C36.9,69.2,35.8,69.2,34.6,69.2L34.6,69.2z M38,45h3.5v3.4h3.5v3.4H38C38,49.5,38,47.2,38,45L38,45z M62.3,51.9h-3.4v-7h3.4V51.9z
	 M69.3,55.3h-7v-3.4h7V55.3z M51.9,45v3.4h-3.5V45H51.9z M44.9,44.9h-3.4v-3.3h3.4L44.9,44.9z M45,65.7h-3.4v-3.3H45
	C45,63.5,45,64.6,45,65.7z M20.7,38c0,1,0,2,0,3c0,0.4,0.1,0.6,0.6,0.6c0.9,0,1.8,0,2.8,0v3.4H7v-3.4h3.4v-6.9h7v3.4
	C18.4,38,19.5,38,20.7,38L20.7,38z M10.4,34.6H7v-6.9h6.8V31h-3.4C10.3,32.2,10.3,33.4,10.4,34.6L10.4,34.6z M27.7,27.6V31H17.4
	v-3.4C20.8,27.7,24.2,27.7,27.7,27.6L27.7,27.6z M34.6,10.3v3.4h-6.9v-3.4C30,10.4,32.4,10.4,34.6,10.3z M34.6,24.3v-3.6H38v3.6
	H34.6z M20.7,38v-3.4h3.5V38C23,38,21.8,38,20.7,38L20.7,38z M65.7,69.1h-3.3v-3.4h3.3V69.1z M17.3,7v10.2H7V7H17.3z M55.4,7h10.3
	v10.3H55.4V7z M17.2,65.7H7V55.4h10.2L17.2,65.7z"/>
</svg>
