<?xml version="1.0" encoding="utf-8"?>
<!-- Generator: Adobe Illustrator 26.0.1, SVG Export Plug-In . SVG Version: 6.00 Build 0)  -->
<svg version="1.1" id="ic_empty_multisend" xmlns="http://www.w3.org/2000/svg" xmlns:xlink="http://www.w3.org/1999/xlink" x="0px"
	 y="0px" viewBox="0 0 100 100" style="enable-background:new 0 0 100 100;" xml:space="preserve">
<style type="text/css">
	.st0{fill:#666666;}
	.st1{fill:#D1D5DB;}
</style>
<path id="Group_9030" class="st0" d="M67,40h2v4h-2V40z M50,72c0.6,0,1,0.4,1,1s-0.4,1-1,1s-1-0.4-1-1S49.4,72,50,72z M83,72
	c0.6,0,1,0.4,1,1s-0.4,1-1,1s-1-0.4-1-1S82.4,72,83,72z M32,58h4v2h-4V58z M17,72c0.6,0,1,0.4,1,1s-0.4,1-1,1s-1-0.4-1-1
	S16.4,72,17,72z M14,66h6v10h-6V66z M80,66h6v10h-6V66z M47,66h6v10h-6V66z M45,18h10v9H45V18z"/>
<path class="st1" d="M16,65h-3v3H7v4h2v-2h4v7h8v-7h4v21H9V76H7v17h20V68h-6v-3h-3v-5h10v-2H16V65z M19,67v8h-4v-8H19z M87,68v-3h-3
	v-7H51v-5h18v-5h-2v3H33V28h34v8h2v-8h4V17H59.5c2.2-2.5,2-6.3-0.5-8.5s-6.3-2-8.5,0.5c-0.2,0.2-0.4,0.5-0.5,0.7
	c-1.8-2.8-5.5-3.5-8.3-1.7c-2.8,1.8-3.5,5.5-1.7,8.3c0.2,0.3,0.4,0.5,0.6,0.7H27v11h4v25h18v5h-9v2h9v5h-3v3h-6v16h2V70h4v7h8v-7h4
	v21H42v-3h-2v5h20V68h-6v-3h-3v-5h31v5h-3v3h-6v12h2V70h4v7h8v-7h4v21H75v-7h-2v9h20V68H87z M71,19v7H56v-7H71z M51,13
	c0-2.2,1.8-4,4-4s4,1.8,4,4s-1.8,4-4,4h-4V13z M51,19h3v7h-8v-7H51z M45,9c2.2,0,4,1.8,4,4v4h-4c-2.2,0-4-1.8-4-4S42.8,9,45,9z
	 M29,26v-7h15v7H29z M52,67v8h-4v-8H52z M85,75h-4v-8h4V75z"/>
</svg>
