<?xml version="1.0" encoding="utf-8"?>
<!-- Generator: Adobe Illustrator 27.1.0, SVG Export Plug-In . SVG Version: 6.00 Build 0)  -->
<svg version="1.1" id="ic_staking_on" xmlns="http://www.w3.org/2000/svg" xmlns:xlink="http://www.w3.org/1999/xlink" x="0px"
	 y="0px" viewBox="0 0 100 100" style="enable-background:new 0 0 100 100;" xml:space="preserve">
<style type="text/css">
	.st0{fill:#3C3C3B;}
	.st1{fill:#D1D5DB;}
</style>
<path id="Group_9016" class="st0" d="M80,52c6.6,0,12,1.8,12,4c0,2.2-5.4,4-12,4s-12-1.8-12-4C68,53.8,73.4,52,80,52z M64,64
	c6.6,0,12,1.8,12,4s-5.4,4-12,4s-12-1.8-12-4S57.4,64,64,64z M32,24h14v14H32V24z"/>
<path id="Group_9018" class="st1" d="M14,64h-2v-4h2V64z M30.6,54.5C30.2,54.9,30,55.4,30,56c0,1.2,1,2.1,2.1,2.1h14.2
	c0.6,0,1.1-0.2,1.5-0.6c0.4-0.4,0.6-0.9,0.6-1.5c0-1.2-1-2.1-2.1-2.1H32.1C31.6,53.9,31,54.1,30.6,54.5z M28.7,47.4h-7.6
	c-0.1,0-0.2,0.1-0.2,0.2v4c0,0.1,0.1,0.2,0.2,0.2l5.2,0h9.9c0.1,0,0.2-0.1,0.2-0.2c0,0,0-0.1,0-0.1C34.7,48.9,31.8,47.3,28.7,47.4z
	 M20.9,64.4c0,0.1,0.1,0.2,0.2,0.2h7.6c3.1,0,6-1.5,7.7-4c0.1-0.1,0-0.2-0.1-0.3c0,0-0.1,0-0.1,0H21.2c-0.1,0-0.2,0.1-0.2,0.2V64.4z
	 M56.8,51.8c0.1,0,0.2-0.1,0.2-0.2v-4c0-0.1-0.1-0.2-0.2-0.2h-7.6c-3,0-5.9,1.5-7.7,4.1c-0.1,0.1,0,0.2,0.1,0.3c0,0,0.1,0,0.1,0
	H56.8z M92,82c0.6,0.5,0.9,1.2,1,2c0,3.3-6.5,5-13,5c-1.1,0-2.1-0.1-3.2-0.2c-1,2.7-7,4.2-12.8,4.2c-6.5,0-13-1.7-13-5
	c0-0.8,0.4-1.5,1-2c-0.1-0.1-0.3-0.2-0.4-0.4c-0.9-1.1-0.7-2.7,0.4-3.6c-0.1-0.1-0.3-0.2-0.4-0.4c-0.9-1.1-0.7-2.7,0.4-3.6
	c-0.3-0.3-0.5-0.6-0.7-1H12v-9h2v7h37.2c0.2-0.4,0.4-0.7,0.7-1c-0.1-0.1-0.3-0.2-0.4-0.4c-0.9-1.1-0.7-2.7,0.4-3.6
	c-0.6-0.5-0.9-1.2-1-2c0-1.4,1.2-2.5,3.1-3.3h-4.8c-3.1,0-6-1.5-7.7-4.1c0,0,0-0.1,0-0.1c0-0.1,0.1-0.2,0.2-0.2h10l5.2,0
	c0.1,0,0.2,0.1,0.2,0.2v3.3c2.1-0.5,4.5-0.7,6.9-0.7V39H14v17h-2V39H7V23h18.4c-1-0.8-1.8-1.8-2.4-2.9c-2.3-4.4-0.5-9.8,3.9-12.1
	c4.4-2.3,9.8-0.5,12.1,3.9c0.6-1.1,1.4-2.1,2.4-2.9c3.9-3.1,9.5-2.5,12.7,1.4c3.1,3.9,2.5,9.5-1.4,12.6H71v16h-5v24.1
	c0.4,0,0.8,0,1.2,0.1c0.2-0.4,0.4-0.8,0.8-1.2c-0.1-0.1-0.3-0.2-0.4-0.4c-0.9-1.1-0.7-2.7,0.4-3.6c-0.6-0.5-0.9-1.2-1-2
	c0-3.3,6.5-5,13-5s13,1.7,13,5c0,0.8-0.4,1.5-1,2c0.1,0.1,0.3,0.2,0.4,0.4c0.9,1.1,0.7,2.7-0.4,3.6c0.1,0.1,0.3,0.2,0.4,0.4
	c0.9,1.1,0.7,2.7-0.4,3.6c0.1,0.1,0.3,0.2,0.4,0.4c0.9,1.1,0.7,2.7-0.4,3.6c0.1,0.1,0.3,0.2,0.4,0.4c0.9,1.1,0.7,2.7-0.4,3.6
	c0.1,0.1,0.3,0.2,0.4,0.4c0.9,1.1,0.7,2.7-0.4,3.6c0.1,0.1,0.3,0.2,0.4,0.4C93.3,79.5,93.2,81.1,92,82z M40,23h7c3.9,0,7-3.1,7-7
	s-3.1-7-7-7s-7,3.1-7,7V23z M31,25H9v12h22V25z M31,23h7v-7c0-3.9-3.1-7-7-7s-7,3.1-7,7C24,19.9,27.1,23,31,23z M45,25H33v12h12V25z
	 M69,37V25H47v12H69z M75,88c0-0.2-0.2-0.5-0.7-0.8C71.8,88.4,67.9,89,64,89s-7.8-0.6-10.3-1.8C53.2,87.5,53,87.8,53,88
	c0,1,3.9,3,11,3S75,89,75,88z M75,84c0-0.2-0.2-0.5-0.7-0.8C71.8,84.4,67.9,85,64,85s-7.8-0.6-10.3-1.8C53.2,83.5,53,83.8,53,84
	c0,1,3.9,3,11,3S75,85,75,84z M75,80c0-0.2-0.2-0.5-0.7-0.8C71.8,80.4,67.9,81,64,81s-7.8-0.6-10.3-1.8C53.2,79.5,53,79.8,53,80
	c0,1,3.9,3,11,3S75,81,75,80z M75,76c0-0.2-0.2-0.5-0.7-0.8C71.8,76.4,67.9,77,64,77s-7.8-0.6-10.3-1.8C53.2,75.5,53,75.8,53,76
	c0,1,3.9,3,11,3S75,77,75,76z M75,72c0-0.2-0.2-0.5-0.7-0.8C71.8,72.4,67.9,73,64,73s-7.8-0.6-10.3-1.8C53.2,71.5,53,71.8,53,72
	c0,1,3.9,3,11,3S75,73,75,72z M75,68c0-1-3.9-3-11-3s-11,2-11,3s3.9,3,11,3S75,69,75,68z M71.5,63.8c-0.6-0.2-1.2-0.4-1.8-0.7
	c-0.1,0.1-0.2,0.2-0.3,0.3C70.1,63.5,70.8,63.7,71.5,63.8z M91,84c0-0.2-0.2-0.5-0.7-0.8C87.8,84.4,83.9,85,80,85
	c-1.1,0-2.1-0.1-3.2-0.2c-0.2,0.4-0.4,0.8-0.8,1.1c0.2,0.2,0.5,0.5,0.6,0.8c1,0.1,2.1,0.2,3.3,0.2C87.1,87,91,85,91,84z M91,80
	c0-0.2-0.2-0.5-0.7-0.8C87.8,80.4,83.9,81,80,81c-1.1,0-2.1-0.1-3.2-0.2c-0.2,0.4-0.4,0.8-0.8,1.1c0.2,0.2,0.5,0.5,0.6,0.8
	c1,0.1,2.1,0.2,3.3,0.2C87.1,83,91,81,91,80z M91,76c0-0.2-0.2-0.5-0.7-0.8C87.8,76.4,83.9,77,80,77c-1.1,0-2.1-0.1-3.2-0.2
	c-0.2,0.4-0.4,0.8-0.8,1.1c0.2,0.2,0.5,0.5,0.6,0.8c1,0.1,2.1,0.2,3.3,0.2C87.1,79,91,77,91,76z M91,72c0-0.2-0.2-0.5-0.7-0.8
	C87.8,72.4,83.9,73,80,73c-1.1,0-2.1-0.1-3.2-0.2c-0.2,0.4-0.4,0.8-0.8,1.1c0.2,0.2,0.5,0.5,0.6,0.8c1,0.1,2.1,0.2,3.3,0.2
	C87.1,75,91,73,91,72z M91,68c0-0.2-0.2-0.5-0.7-0.8C87.8,68.4,83.9,69,80,69c-1.1,0-2.1-0.1-3.2-0.2c-0.2,0.4-0.4,0.8-0.8,1.1
	c0.2,0.2,0.5,0.5,0.6,0.8c1,0.1,2.1,0.2,3.3,0.2C87.1,71,91,69,91,68z M91,64c0-0.2-0.2-0.5-0.7-0.8C87.8,64.4,83.9,65,80,65
	c-2.5,0-5-0.3-7.5-0.9c2,0.6,3.6,1.5,4.2,2.7c1,0.1,2.1,0.2,3.3,0.2C87.1,67,91,65,91,64z M91,60c0-0.2-0.2-0.5-0.7-0.8
	C87.8,60.4,83.9,61,80,61s-7.8-0.6-10.3-1.8C69.2,59.5,69,59.8,69,60c0,1,3.9,3,11,3S91,61,91,60z M91,56c0-1-3.9-3-11-3s-11,2-11,3
	s3.9,3,11,3S91,57,91,56z"/>
</svg>
